<svg xmlns="http://www.w3.org/2000/svg" xmlns:xlink="http://www.w3.org/1999/xlink" viewBox="0 0 3333 3333"><defs><style>.cls-1{fill:none;}.cls-2{fill:#43a948;}.cls-3{clip-path:url(#clip-path);}.cls-4{fill:#fff;stroke:#231f20;stroke-miterlimit:10;stroke-width:10px;}.cls-5,.cls-6{fill:#006838;}.cls-6{fill-rule:evenodd;}</style><clipPath id="clip-path" transform="translate(0 -0.33)"><circle class="cls-1" cx="1666" cy="1662.33" r="1353"/></clipPath></defs><title>safari-pinned-tab</title><g id="Layer_2" data-name="Layer 2"><circle class="cls-2" cx="1666.5" cy="1666.5" r="1666.5"/><g class="cls-3"><circle class="cls-4" cx="1673" cy="1667" r="1276"/><rect class="cls-5" x="1329" y="2740" width="739" height="476"/><path class="cls-6" d="M358.34,1040.37c-.15-177.27,161.4-476.26,314.85-564.68l260.1-154,393.24-82.09c201.84-44.62,383.22-52.5,554.83-26.41C2084.86,228.47,2288,243,2398,348.78l246.49,126.91c122.84,59.61,325.26,362.69,325.18,540.83L3114,1378.74v509.09c.08,177.29-51.85,426.29-205.37,514.74L2666,2645.23,2250.5,2943l-405.64,225.24C1824.69,3180,1824,2806.78,1824,2806.78V2378.46l617-354.61c67.36-38.74,90.71-125.36,51.79-192.45s-125.93-90.3-193.37-51.56L1824,2053.17V1623.91l617-354.64c67.36-38.63,90.71-125.21,51.79-192.38s-125.93-90.22-193.37-51.6L1824,1298.62V839.67c0-77.45-63.66-140.9-141.5-140.9S1541,762.23,1541,839.67v459.59L1067.94,1026c-67.09-38.69-153.59-15.57-192.4,51.49-38.65,67.14-15.41,153.56,51.53,192.28L1541,1624.28v429l-473.06-273.07c-67.09-38.84-153.59-15.6-192.4,51.42-38.65,67.06-15.41,153.63,51.53,192.36L1541,2378.45v428.08c2.39,30.95,2.28,373.08-17.81,361.39l-362.79-151.33-257-147-325.21-316c-112.61-44.14-320-462.48-319.91-640.52l20.53-499.66" transform="translate(0 -0.33)"/></g></g></svg>